PathFileType	4	(X/Y/Z)	HSS_walk1.trc
DataRate	CameraRate	NumFrames	NumMarkers	Units	OrigDataRate	OrigDataStartFrame	OrigNumFrames
120.0	120.0	4	44	mm	120.0	505	1008
Frame#	Time		R.Shoulder		Offset		L.Shoulder		R.Elbow		R.Wrist.Radial		R.Wrist		R.Hand		L.Elbow		L.Wrist.Radial		L.Wrist		L.Hand		R.Hip		V.Sacral		L.PSIS		L.Hip		R.Thigh.Upper		R.Thigh.Front		R.Thigh.Rear		X.Shell.Lower.Thigh.Right		R.Knee.Lateral		R.Shank.Upper		R.Shank.Front		R.Shank.Rear		X.Shell.Lower.Shank.Right		R.Ankle.Lateral		R.Heel		R.Toe		L.Thigh.Upper		L.Thigh.Front		L.Thigh.Rear		X.Shell.Lower.Thigh.Left		L.Knee.Lateral		L.Shank.Upper		L.Shank.Front		L.Shank.Rear		X.Shell.Lower.Shank.Left		L.Ankle.Lateral		L.Heel		L.Toe		R.Troc		L.Troc		R.PSIS		L.ASIS		R.ASIS
			X1	Y1	Z1	X2	Y2	Z2	X3	Y3	Z3	X4	Y4	Z4	X5	Y5	Z5	X6	Y6	Z6	X7	Y7	Z7	X8	Y8	Z8	X9	Y9	Z9	X10	Y10	Z10	X11	Y11	Z11	X12	Y12	Z12	X13	Y13	Z13	X14	Y14	Z14	X15	Y15	Z15	X16	Y16	Z16	X17	Y17	Z17	X18	Y18	Z18	X19	Y19	Z19	X20	Y20	Z20	X21	Y21	Z21	X22	Y22	Z22	X23	Y23	Z23	X24	Y24	Z24	X25	Y25	Z25	X26	Y26	Z26	X27	Y27	Z27	X28	Y28	Z28	X29	Y29	Z29	X30	Y30	Z30	X31	Y31	Z31	X32	Y32	Z32	X33	Y33	Z33	X34	Y34	Z34	X35	Y35	Z35	X36	Y36	Z36	X37	Y37	Z37	X38	Y38	Z38	X39	Y39	Z39	X40	Y40	Z40	X41	Y41	Z41	X42	Y42	Z42	X43	Y43	Z43	X44	Y44	Z44

505	4.20000	-1213.94568	1429.45959	-42.06458	-1315.51367	1376.28235	-350.00400	-1164.29602	1454.81360	-411.82843	-1349.63623	1092.61938	-27.87965	-1306.24963	840.77271	-1.62555	-1357.49622	853.19745	50.49422	-1341.64441	766.71570	53.18159	-1180.58264	1086.57959	-486.86234	-963.19135	946.42590	-436.79703	-995.56921	921.95740	-497.21182	-922.26056	878.99756	-479.42365	-1208.82800	1012.01282	-92.37458	-1330.62329	992.04565	-240.55846	-1324.84436	993.41565	-279.80545	-1204.99451	990.54260	-389.30389	-1067.50330	698.37311	-60.54711	-1025.35925	675.63245	-82.39570	-1074.21399	654.18152	-50.83563	-1039.29944	633.57751	-73.35210	-1063.50305	513.53931	-87.80000	-1052.14111	364.44321	-44.68221	-1023.87402	324.38837	-72.90261	-1081.72607	325.31711	-54.62656	-1056.38403	287.95349	-67.75200	-1054.71619	67.25010	-118.90549	-1100.98914	31.41340	-167.57019	-902.48792	32.88216	-126.61246	-1213.64856	642.53748	-394.53442	-1201.34692	590.84570	-371.62619	-1249.85168	611.70709	-405.64935	-1229.68909	573.46887	-394.23441	-1321.55725	473.12192	-377.91779	-1469.81384	331.30173	-420.29535	-1464.31189	295.45334	-402.13547	-1518.69568	321.16132	-408.60364	-1520.49841	282.70990	-409.79398	-1620.72778	148.03598	-367.07779	-1686.20251	154.44720	-319.44342	-1538.71558	30.97207	-342.32501	-1165.99048	873.85291	-54.54599	-1222.08997	845.27026	-419.18933	-1326.65039	1000.69318	-194.27000	-1144.98132	949.24780	-350.02673	-1145.98279	975.47894	-126.80970
506	4.20833	-1205.32068	1430.50793	-39.83699	-1307.21729	1378.12390	-348.31549	-1155.63477	1456.92249	-409.40573	-1338.82971	1092.83606	-26.48304	-1294.93091	841.01447	-0.90335	-1345.92004	853.38477	51.33957	-1330.15247	766.71796	53.39469	-1174.32532	1089.05420	-484.79517	-959.22662	944.79474	-436.11575	-992.42450	921.19714	-496.25436	-919.67072	876.92310	-479.17871	-1200.00842	1013.49347	-91.26732	-1321.67883	993.53967	-239.62383	-1316.04297	994.80444	-278.85098	-1195.75793	992.25159	-388.03513	-1060.36072	698.72028	-59.22573	-1018.08972	675.77386	-80.66013	-1067.29895	654.60016	-49.80295	-1032.35706	633.76141	-72.13531	-1057.40137	513.70056	-87.32162	-1048.50696	364.37024	-44.50272	-1020.65875	323.84045	-72.09187	-1078.55908	325.68985	-54.35824	-1053.67346	287.91449	-67.33983	-1054.49353	67.28758	-118.86102	-1100.78271	31.48716	-166.91347	-902.14215	32.51629	-126.77679	-1200.79614	643.00122	-393.86261	-1187.31689	591.53375	-371.42618	-1236.57092	611.71704	-405.20914	-1215.60559	573.77991	-394.34341	-1306.02856	472.74765	-378.32901	-1457.66443	334.65298	-419.59369	-1452.61658	298.48212	-402.16345	-1506.42700	325.51514	-407.02884	-1509.13745	287.14441	-408.95877	-1611.64001	153.63840	-366.39548	-1675.41528	162.99107	-317.51770	-1537.30884	31.50323	-342.19119	-1157.75232	875.03278	-52.89265	-1212.40002	845.90375	-417.09021	-1317.51746	1002.13574	-193.08745	-1135.99939	950.81372	-348.57938	-1137.06665	977.30353	-125.07591
507	4.21667	-1196.82715	1431.67200	-37.39045	-1298.97681	1380.00488	-346.33148	-1147.24084	1458.98352	-406.99557	-1327.80090	1093.08875	-24.98945	-1283.35791	841.30157	-0.33903	-1333.98523	853.54138	52.44773	-1318.17676	766.73480	53.97723	-1168.37732	1091.57617	-482.60394	-955.89630	942.99036	-435.44699	-989.36487	920.60938	-496.04230	-917.60699	874.86847	-479.33817	-1191.15747	1014.96014	-90.17822	-1312.72974	994.98376	-238.54654	-1307.36829	996.43176	-277.59360	-1186.68689	993.87750	-386.87994	-1053.59973	698.71375	-57.75654	-1011.30975	675.36823	-79.01390	-1061.03406	654.49292	-48.55233	-1025.95789	633.56122	-70.48571	-1051.74194	513.62744	-86.43671	-1044.97473	364.16238	-43.86382	-1017.47314	323.25311	-71.61286	-1075.47375	325.97107	-54.09524	-1050.98352	287.77988	-66.81241	-1054.33887	67.24664	-118.82893	-1100.80945	31.52577	-166.77435	-901.98138	32.21482	-126.89280	-1188.15088	643.61652	-393.55539	-1173.42749	592.12604	-371.94009	-1223.28088	611.78387	-405.09265	-1201.47363	574.06934	-394.64154	-1290.12451	472.20880	-378.38278	-1444.79163	338.02097	-418.65268	-1440.26599	301.59833	-402.84113	-1493.54248	329.70517	-405.15677	-1497.59119	291.75681	-408.44196	-1601.60938	159.42300	-365.74310	-1663.56885	171.58951	-315.72357	-1535.19470	32.34857	-342.26355	-1149.34485	876.04645	-51.60815	-1200.69873	846.10114	-413.18268	-1308.50110	1003.56494	-191.91837	-1127.61218	952.07715	-347.36386	-1128.07983	978.93207	-123.54884
508	4.22500	-1188.25696	1432.80103	-35.25869	-1290.91626	1381.72742	-344.56152	-1139.48706	1460.95020	-404.54065	-1316.93970	1093.22534	-23.42952	-1271.31335	841.85046	0.08562	-1321.37952	853.52417	53.13303	-1305.69556	766.86493	54.50368	-1162.38440	1094.13904	-480.59271	-952.73260	941.10071	-434.68719	-986.79138	919.90161	-495.32108	-915.77490	872.68884	-479.10059	-1182.24231	1016.16895	-89.08276	-1304.06018	996.47266	-237.64949	-1298.83435	997.78027	-276.42606	-1177.99646	995.45099	-385.79279	-1047.01184	698.31104	-56.20758	-1004.89691	674.58325	-76.90363	-1055.21057	654.30377	-47.05389	-1020.17798	632.88129	-68.90208	-1046.80518	513.54749	-85.81241	-1041.27063	363.90274	-43.48871	-1014.29858	322.70386	-70.99138	-1072.28564	325.99673	-53.76896	-1048.33838	287.67554	-66.46355	-1054.06702	67.18613	-118.88688	-1100.81042	31.54354	-166.74739	-901.82166	31.87045	-126.85414	-1175.29663	644.05518	-393.47464	-1159.22327	592.61298	-372.77051	-1209.79639	611.55957	-404.78943	-1187.21338	574.15900	-395.01233	-1273.81079	471.34546	-378.41705	-1431.31677	341.47052	-417.68338	-1427.09363	304.32614	-402.07858	-1479.96777	333.94077	-403.29803	-1484.66052	295.96454	-407.10934	-1590.72327	164.98813	-364.68124	-1650.97083	180.10857	-313.98401	-1534.21179	32.83046	-341.71219	-1141.01257	876.62012	-50.23668	-1192.06189	846.22540	-412.10043	-1299.69934	1004.93671	-190.52144	-1118.83069	953.31818	-345.91089	-1119.34204	980.32043	-122.13564
